<?xml version="1.0" standalone="no"?>
<!DOCTYPE svg PUBLIC "-//W3C//DTD SVG 20010904//EN"
 "http://www.w3.org/TR/2001/REC-SVG-20010904/DTD/svg10.dtd">
<svg version="1.0" xmlns="http://www.w3.org/2000/svg"
 width="500.000000pt" height="500.000000pt" viewBox="0 0 500.000000 500.000000"
 preserveAspectRatio="xMidYMid meet">

<g transform="translate(0.000000,500.000000) scale(0.100000,-0.100000)"
fill="#000000" stroke="none">
<path d="M2019 4442 c-261 -152 -681 -396 -932 -542 l-456 -265 -1 -1130 0
-1130 70 -43 c38 -24 75 -40 82 -36 6 4 8 3 5 -3 -3 -5 11 -19 32 -31 l38 -21
18 203 c9 112 15 209 11 214 -3 6 -3 12 2 14 8 3 96 950 91 979 -1 8 1 22 5
31 5 10 6 40 4 67 -1 27 0 47 3 46 8 -6 33 301 25 314 -4 6 -3 11 2 11 5 0 13
48 18 108 l9 107 387 5 c212 3 384 2 382 -1 -7 -12 132 -359 141 -351 5 4 5 2
1 -5 -7 -12 84 -264 94 -258 3 2 6 -8 7 -22 0 -14 5 -28 10 -32 4 -3 8 -10 8
-16 0 -13 47 -138 54 -145 3 -3 7 -14 9 -25 2 -11 14 -39 27 -63 13 -23 20
-40 16 -37 -13 8 138 -375 154 -392 17 -17 20 -27 5 -18 -6 4 -2 -15 8 -42 11
-26 36 -94 58 -150 21 -56 42 -99 48 -96 5 3 6 1 3 -4 -7 -11 33 -133 43 -133
9 0 41 91 35 100 -3 5 0 10 5 12 6 2 12 10 14 18 2 8 6 23 10 32 4 9 9 22 10
30 1 7 8 23 14 36 7 12 10 28 6 34 -4 7 -3 8 4 4 11 -7 16 8 15 42 -1 7 2 11
5 7 9 -9 83 195 76 208 -4 7 -3 9 1 4 11 -9 158 372 151 390 -3 8 -2 12 3 9 6
-4 97 209 105 249 2 6 10 27 19 49 9 21 14 42 11 47 -3 5 0 9 6 9 7 0 9 7 6
16 -3 8 -2 12 4 9 9 -6 14 11 13 43 -1 7 2 11 5 7 9 -9 83 195 76 208 -4 7 -3
9 1 4 5 -4 28 43 51 104 24 61 45 113 47 115 7 7 750 5 758 -3 7 -8 11 -44 23
-203 4 -47 22 -247 41 -445 19 -198 36 -387 38 -420 14 -214 42 -483 50 -478
6 4 7 1 2 -7 -8 -13 15 -330 24 -330 3 0 7 -51 9 -113 2 -61 6 -126 10 -143
l7 -32 141 82 141 81 7 65 c8 84 8 2054 0 2141 -6 56 -10 67 -33 81 -447 263
-1905 1108 -1912 1108 -2 0 -218 -125 -480 -278z"/>
<path d="M1630 2040 c0 -6 -20 -265 -45 -576 -25 -311 -44 -579 -43 -595 2
-28 16 -38 175 -130 101 -59 177 -98 184 -93 7 4 9 3 6 -4 -7 -10 122 -92 151
-96 8 -1 17 -7 20 -12 4 -6 33 -25 64 -43 l58 -32 -79 228 c-44 125 -113 325
-154 443 -42 118 -102 290 -134 382 -32 91 -62 164 -67 161 -5 -4 -6 -1 -2 6
8 13 -114 371 -126 371 -5 0 -8 -5 -8 -10z"/>
<path d="M3267 1799 c-49 -138 -86 -258 -83 -266 3 -8 2 -12 -3 -9 -12 8 -124
-321 -115 -336 4 -7 3 -10 -1 -5 -11 9 -58 -112 -50 -131 2 -7 1 -11 -3 -8 -4
2 -33 -68 -64 -157 -31 -89 -85 -246 -121 -348 l-65 -186 291 169 c161 94 321
186 356 206 l63 37 -6 63 c-4 35 -9 95 -12 135 -3 40 -19 227 -34 417 -16 190
-31 386 -34 435 -3 50 -9 117 -12 150 -4 33 -7 66 -5 73 1 6 -2 12 -6 12 -4 0
-48 -113 -96 -251z m-166 -586 c13 -16 12 -17 -3 -4 -17 13 -22 21 -14 21 2 0
10 -8 17 -17z"/>
</g>
</svg>
